<svg xmlns="http://www.w3.org/2000/svg" viewBox="0 0 1080 1080"><style>.st1{display:inline}.st2{fill:#0163a4}.st3{fill:#999}.st6{fill:#81a5bf}.st7{fill:#fff}</style><switch><g id="_x3C_Слой_x3E__1_"><path class="st6" d="M811.5 812.5c-27.7 0-52.7-9.2-72.5-26.7-31.7-28-48.3-65.4-56.6-91.8-9-28.6-10.5-50.3-10.5-51.2v-.4c0-1.2 1-29.6 24.5-44.2 9.6-6 20.8-9 33.3-9 18.6 0 33.5 6.8 34.1 7.1 1.9.9 3 3 2.5 5.1-.2.7-15.7 71.3 16.8 127.5 17.5 30.3 37.6 45.1 61.5 45.1 21.6 0 43.6-12.1 60.4-22.6.7-.5 1.6-.7 2.4-.7 1.1 0 2.1.4 2.9 1.1 1.5 1.3 2 3.4 1.2 5.2-14 32.2-56 55.5-100 55.5z"/><path class="st7" d="M729.7 593.7c17.9 0 32.2 6.6 32.2 6.6s-16.5 72.3 17.3 130.8c20.2 35 42.6 47.3 65.4 47.3 21 0 42.4-10.5 62.8-23.3-13.1 30.1-53.7 52.8-95.9 52.8-24.3 0-49.1-7.5-69.5-25.5-59.9-52.9-65.6-140-65.6-140s.6-27 22.4-40.5c10.1-6.2 21.1-8.2 30.9-8.2m0-9c-13.3 0-25.3 3.3-35.7 9.7-25.6 15.9-26.6 46.6-26.7 47.9v.8c.1.9 1.6 23.2 10.7 52.3 8.5 27 25.4 65.2 57.9 93.9 20.6 18.2 46.7 27.8 75.5 27.8 21.8 0 44.3-5.8 63.2-16.3 19.2-10.6 33.6-25.4 40.8-41.7.6-1.2.9-2.5.9-3.9 0-4.9-4-9-8.9-9h-.5c-1.6.1-3.2.6-4.5 1.4-16.3 10.2-37.6 21.8-57.9 21.8-22.1 0-40.9-14-57.6-42.8-16.4-28.3-20-60.4-20.1-82.4-.1-24.2 3.8-41.7 3.8-41.9.9-4.1-1.1-8.4-5-10.2-.6-.2-16.3-7.4-35.9-7.4z"/><path class="st6" d="M503 854.9c-48.4 0-96-9.3-141.3-27.5-44.5-17.9-84.6-43.6-119.2-76.3-72.9-68.9-113.1-161.9-113.1-261.7 0-48.4 8.8-94.6 26.1-137.2 14.2-35.1 34.3-68 59.7-97.8 47.4-55.8 98.5-83.7 108.4-88.8 8.6-4.7 16.7-8.8 24.5-12.8 23.8-12.2 46.4-23.8 77.1-47.9 17.6-14.7 34.6-35.9 40.2-91.2.2-1.8 1.4-3.3 3.2-3.8.4-.1.9-.2 1.3-.2 1.3 0 2.6.6 3.5 1.6 31.8 37.9 64.4 75.2 87.7 91 20.5 13.5 40.8 22.7 62.2 32.4 19.7 8.9 40.1 18.1 60.9 31.1l.7.5c40 25 74.7 55.6 103.1 91.1 54.4 68.1 82 148.3 82 238.6 0 52.4-10 102-29.7 147.3-18.7 43-45.7 81.2-80.2 113.4-33.6 31.3-73 55.8-117 72.7-44.2 16.9-91.4 25.5-140.1 25.5z"/><path class="st7" d="M470 14c29 34.6 63.7 74.9 88.6 91.9 40.3 26.6 80.6 37.1 123.3 63.7 25.8 16.1 183.7 112.8 183.7 326.3S697.2 850.4 503 850.4c-194.2 0-369-153.1-369-361s162-304.6 191.8-319.9c35.5-19.3 61.2-29 102.3-61.2C447.4 92.2 464.4 69.6 470 14m0-9c-.9 0-1.8.1-2.6.4-3.5 1.1-5.9 4.1-6.3 7.7-5.4 53.7-21.8 74.1-38.6 88.2-30.4 23.8-51.7 34.8-76.3 47.4-7.8 4-15.9 8.2-24.5 12.9-10.2 5.2-61.8 33.5-109.7 89.9-25.7 30.2-46 63.6-60.4 99.1-17.5 43.2-26.4 89.9-26.4 138.9 0 101.1 40.7 195.2 114.5 265 35 33.1 75.6 59 120.6 77.2C405.9 850 454 859.4 503 859.4c49.2 0 97-8.7 141.8-26 44.6-17.1 84.4-41.9 118.5-73.6 34.9-32.6 62.3-71.2 81.2-114.9 20-45.9 30.1-96 30.1-149.1 0-49.8-8.5-97.2-25.3-141-13.8-35.9-33.2-69.7-57.8-100.4-43.2-54-89.1-82.7-104.2-92.1l-.7-.4c-21.1-13.1-41.6-22.4-61.4-31.4-21.3-9.6-41.4-18.7-61.6-32.1-22.9-15.5-55.2-52.5-86.7-90.2-1.7-2.1-4.3-3.2-6.9-3.2z"/><path class="st7" d="M306.1 529c.8-62.9 59.6-121.7 133.8-122.5 94.3-.8 159.5 93.5 207.1 92.7 40.3-.8 117.6-79.8 155.5-79.8 40.3 0 51.6 41.9 51.6 66.9 0 25 1.3 47.5-18.1 75.7-19.3 28.2-33.4 35.7-55.9 34-29-2.4-94.4-67-131.5-68.6-46.7-1.6-148.3 97.5-228 97.5-48.3 0-62.8-7.3-79-17.7-24.2-16.9-36.3-42.7-35.5-78.2z"/><g><path class="st6" d="M825.8 1073.7c-25.5 0-75.1-6.4-121.2-49.3-31.3-29.1-38.2-61.3-44.8-92.4-5.9-27.5-11.4-53.4-33.9-75-13.8-13.3-33.1-16.1-53.5-19.2-36.5-5.4-77.8-11.5-91.5-82.2-7.4-38.5.5-73.4 22.9-101.1 20.7-25.6 53.3-44.4 94-54.6 18.3-4.5 36.7-6.8 54.8-6.8 41.3 0 81 12.3 111.8 34.6 29.1 21.1 48.5 50.3 53.2 80 8.9 56.5-1.3 82.6-13 112.8-5.9 15.3-12.1 31-16.4 52.5-10 49.8-2.3 73.2 28.2 86.2 13.7 5.9 23.3 7 34.2 7 3.4 0 7-.1 10.8-.2 4.5-.2 9.2-.3 14.5-.3 2.6 0 5.2 0 7.7.1 3.6.1 8.6.3 9.7 4.5 1.1 4.2-2.4 6.3-8.7 10-9.7 5.8-27.9 16.5-34.6 35.1-9.4 25.9-6.6 39.3-4.1 45.1 1.2 2.6 1 5.6-.5 8.1s-4.1 4.2-7 4.4c-4.1.5-8.3.7-12.6.7z"/><path class="st7" d="M652.5 597.7c86.1 0 151.5 53.1 160.6 110.8 13.2 83.8-16.6 99.6-29.4 163.7-10.4 52.2-2 77.2 30.8 91.3 14.4 6.2 24.7 7.4 36 7.4 7.5 0 15.5-.6 25.3-.6 2.4 0 4.9 0 7.6.1 21.2.7-25.3 9.3-37.7 43.6-9.7 26.8-7 41.4-4 48.4 1.2 2.8-.8 5.9-3.8 6.2-3.1.3-7.2.5-12.1.5-25.8 0-73.5-6.6-118.2-48.1-58.1-53.9-29.6-120.2-78.7-167.4-41-39.4-123.2 7-143.7-98.9-15.2-78.4 36-131.1 113.6-150.4 18.6-4.5 36.6-6.6 53.7-6.6m0-9v9-9c-18.4 0-37.2 2.3-55.9 7-41.7 10.4-75.1 29.8-96.4 56.1-23.3 28.7-31.6 65-23.9 104.8 6.3 32.7 19 55.1 38.9 68.3 17.4 11.7 37.2 14.6 56.4 17.4 19.7 2.9 38.3 5.7 51.1 18 21.5 20.6 26.9 45.9 32.6 72.7 6.5 30.3 13.8 64.7 46.2 94.8 47.3 43.9 98.2 50.5 124.3 50.5 4.4 0 8.8-.2 12.9-.5 4.3-.4 8.2-2.9 10.5-6.6 2.2-3.7 2.5-8.3.8-12.2-1.8-4.1-5-16.4 4.2-41.7 6.2-17.1 23.4-27.3 32.7-32.8 2.3-1.4 4.1-2.4 5.6-3.5 5.7-4 5.9-8.5 5.1-11.5-.5-1.8-2.2-6.1-8.3-7.3-1.4-.3-3.2-.5-5.6-.5-2.6-.1-5.2-.1-7.9-.1-5.4 0-10.3.2-14.6.3-3.7.1-7.3.2-10.6.2-10.4 0-19.4-1.1-32.4-6.7-24.4-10.4-36.3-27-25.5-81.2 4.2-21 10.3-36.6 16.2-51.7 11.5-29.6 22.4-57.5 13.3-115.2-2.5-15.6-8.6-30.9-18.2-45.3-9.5-14.2-21.8-26.8-36.8-37.7-31.8-23-72.4-35.6-114.7-35.6z"/></g><g><path class="st6" d="M497.6 908.8c-29.3 0-55.2-6.4-77.2-19-45.6-26.2-69.8-65.9-82.1-94.5-13.3-31-15.8-55.5-15.9-56.5v-.5c0-1.4.9-33.5 33.3-53.6 22-13.6 46.4-16.5 63.1-16.5 17.4 0 29.7 3 30.2 3.1 1.2.3 2.2 1 2.8 2.1.6 1 .8 2.3.5 3.4-.1.2-5.4 21.2-4.8 49.1.5 25.5 6.3 62.2 30.9 92.4 22.7 27.9 48 41.5 77.5 41.5 35.2 0 71.7-20 99.5-37.4.7-.5 1.6-.7 2.4-.7 1.1 0 2.2.4 3 1.2 1.5 1.4 1.9 3.5 1 5.3-10.5 21.2-33.3 41.3-64.2 56.6-31.3 15.4-66.8 24-100 24z"/><path class="st7" d="M418.8 672.6c17.1 0 29.1 3 29.1 3s-22.3 84.9 26.9 145.5c25.5 31.4 53 43.2 80.9 43.2 34.1 0 68.9-17.4 101.9-38.1-20.5 41.4-91.8 78.1-160.1 78.1-26.5 0-52.5-5.5-74.9-18.4-86.2-49.6-95.8-147.5-95.8-147.5s.5-30.8 31.2-49.9c20.5-12.7 43.3-15.9 60.8-15.9m0-9v9-9c-17.3 0-42.6 3-65.5 17.2-34.5 21.4-35.4 55.9-35.5 57.4v1c.1 1.1 2.7 26.2 16.3 57.8 8 18.6 18.1 35.5 30.2 50.5 15.1 18.7 33.2 34.3 53.8 46.1 22.6 13 49.4 19.6 79.4 19.6 69.8 0 145.1-37.2 168-82.9.7-1.3 1.1-2.7 1.1-4.2 0-4.9-4-8.9-8.9-9h-.6c-1.6.1-3.1.6-4.4 1.4-27.3 17.1-63 36.7-97 36.7-28 0-52.2-13-74-39.9-19-23.4-29-53.5-29.8-89.4-.6-27.3 4.6-47.9 4.7-48.1.6-2.3.3-4.8-1-6.9-1.2-2.1-3.2-3.6-5.6-4.1-.5-.1-13.3-3.2-31.2-3.2z"/></g></g></switch></svg>