<svg id="Calque_1" data-name="Calque 1" xmlns="http://www.w3.org/2000/svg" viewBox="0 0 550.2 144.75"><defs><style>.cls-1{fill:#80993d;}.cls-2{fill:#62782d;}.cls-3{fill:#aecc54;}.cls-4{fill:#4f6e89;}.cls-5{fill:#003a51;}</style></defs><title>logo</title><polygon class="cls-1" points="35.88 133.16 18.25 144.75 0.62 133.16 0.62 112.8 18.25 102.62 35.88 112.8 35.88 133.16"/><polygon class="cls-2" points="18.25 144.75 0.62 133.16 0.62 112.8 18.25 102.62 18.25 144.75"/><polygon class="cls-3" points="18.25 102.62 0.62 112.8 18.27 123.42 35.88 112.8 18.25 102.62"/><rect class="cls-3" x="43.18" y="104.15" width="506.68" height="7.7"/><path class="cls-4" d="M63.82,145.11l-2.38-6.36H52.55l-2.43,6.36H48.71l7.8-20.23h1.16l7.53,20.23H63.82Zm-6.72-18-4,10.23h7.82Z" transform="translate(-6.66 -4.46)"/><path class="cls-4" d="M75,144.33a6.21,6.21,0,0,1-8.12-.91,8.07,8.07,0,0,1-1.69-5.36,8.91,8.91,0,0,1,1.73-5.7,5.81,5.81,0,0,1,4.82-2.18,5.33,5.33,0,0,1,3.24,1A5.82,5.82,0,0,1,77,134.72l-1.16.69q-0.83-3.81-4.19-3.82a4.6,4.6,0,0,0-3.88,1.79,7.47,7.47,0,0,0-1.38,4.68,6.63,6.63,0,0,0,1.33,4.36A4.49,4.49,0,0,0,71.44,144a4.63,4.63,0,0,0,2.86-.9A4.86,4.86,0,0,0,76,139.86l1.18,0.63A6.1,6.1,0,0,1,75,144.33Z" transform="translate(-6.66 -4.46)"/><path class="cls-4" d="M81.45,132.57v12.53h-1.2l0-12.53H77.77v-1.4H80.2v-4.38h1.25v4.38h2.48v1.4H81.45Z" transform="translate(-6.66 -4.46)"/><path class="cls-4" d="M94.6,145.13v-2a4.83,4.83,0,0,1-4.39,2.33,5,5,0,0,1-3.65-1.34A5.62,5.62,0,0,1,85.13,140v-9.46h1.25V140q0,4.06,3.82,4.06a3.87,3.87,0,0,0,3.34-1.55,6.83,6.83,0,0,0,1.05-4.06v-7.87h1.25v14.59H94.6Z" transform="translate(-6.66 -4.46)"/><path class="cls-4" d="M108.31,145.13v-2.62a5.69,5.69,0,0,1-9.47.71,8.79,8.79,0,0,1-1.54-5.37,8.88,8.88,0,0,1,1.57-5.46,5.38,5.38,0,0,1,4.56-2.21,5.24,5.24,0,0,1,4.88,2.84v-2.78h1.25v14.89h-1.25Zm-1.25-11.81a4.47,4.47,0,0,0-3.76-1.73,4.19,4.19,0,0,0-3.58,1.85,7.59,7.59,0,0,0-1.2,4.42,7.35,7.35,0,0,0,1.2,4.38A4.15,4.15,0,0,0,103.3,144a4.37,4.37,0,0,0,3.64-1.76,7,7,0,0,0,1.37-4.41A7.44,7.44,0,0,0,107.06,133.32Z" transform="translate(-6.66 -4.46)"/><path class="cls-4" d="M111.84,145.11V124.88h1.25v20.23h-1.25Z" transform="translate(-6.66 -4.46)"/><path class="cls-4" d="M115.76,127.89a0.68,0.68,0,0,1-.59-0.6v-2.09a0.72,0.72,0,0,1,.59-0.6,1,1,0,0,1,.67.54v2.2A0.91,0.91,0,0,1,115.76,127.89Zm-0.59,17.21V130.31h1.25v14.79h-1.25Z" transform="translate(-6.66 -4.46)"/><path class="cls-4" d="M121.28,132.57v12.53h-1.21l0-12.53H117.6v-1.4H120v-4.38h1.25v4.38h2.47v1.4h-2.47Z" transform="translate(-6.66 -4.46)"/><path class="cls-4" d="M125.39,138.27q0.25,5.76,4.93,5.76a4.57,4.57,0,0,0,4.69-3.62h1.27a6.51,6.51,0,0,1-2.43,4,6.25,6.25,0,0,1-3.58,1,5.38,5.38,0,0,1-4.61-2.15,9.12,9.12,0,0,1-1.5-5.55,8.79,8.79,0,0,1,1.7-5.61A5.5,5.5,0,0,1,130.4,130a5.72,5.72,0,0,1,4.52,1.94,7.72,7.72,0,0,1,1.69,5.26v1.07Zm5-6.89a4.43,4.43,0,0,0-3.43,1.46,6.64,6.64,0,0,0-1.55,4h9.81a6.31,6.31,0,0,0-1.43-4A4.34,4.34,0,0,0,130.4,131.38Zm1.84-5.19-2.84,3.52a0.7,0.7,0,0,1-.47.23,0.59,0.59,0,0,1-.64-0.69,0.77,0.77,0,0,1,.2-0.5l2.77-3.49a0.58,0.58,0,0,1,.91-0.12,0.77,0.77,0,0,1,.22.53A1.27,1.27,0,0,1,132.24,126.19Z" transform="translate(-6.66 -4.46)"/><path class="cls-4" d="M147,138.36q0.24,5.67,4.93,5.67a4.55,4.55,0,0,0,4.68-3.55h1.28a6.4,6.4,0,0,1-2.43,3.94,6.25,6.25,0,0,1-3.59,1,5.43,5.43,0,0,1-4.61-2.12,8.8,8.8,0,0,1-1.5-5.46,8.56,8.56,0,0,1,1.71-5.55,5.51,5.51,0,0,1,4.53-2.12,5.7,5.7,0,0,1,4.51,1.93,7.56,7.56,0,0,1,1.7,5.17v1Zm5-6.77a4.48,4.48,0,0,0-3.43,1.44A6.44,6.44,0,0,0,147,137h9.81a6.05,6.05,0,0,0-1.44-3.94A4.39,4.39,0,0,0,152,131.59Z" transform="translate(-6.66 -4.46)"/><path class="cls-4" d="M162.16,132.57v12.53H161l0-12.53h-2.43v-1.4h2.43v-4.38h1.25v4.38h2.48v1.4h-2.48Z" transform="translate(-6.66 -4.46)"/><path class="cls-4" d="M174.49,145.11V124.88h12.66v1.4H175.73v7.61h10.12v1.38H175.73v8.44h11.55v1.4H174.49Z" transform="translate(-6.66 -4.46)"/><path class="cls-4" d="M193.87,145.11h-1.12L187,130.54h1.45l4.88,12.62,4.56-12.62h1.37Z" transform="translate(-6.66 -4.46)"/><path class="cls-4" d="M205.52,145.43a5.63,5.63,0,0,1-4.63-2.12,8.51,8.51,0,0,1-1.7-5.48,8.32,8.32,0,0,1,1.76-5.57,5.75,5.75,0,0,1,4.62-2.07,5.69,5.69,0,0,1,4.6,2.07,8.4,8.4,0,0,1,1.73,5.57,8.3,8.3,0,0,1-1.75,5.55A5.78,5.78,0,0,1,205.52,145.43Zm3.77-12.13a4.48,4.48,0,0,0-3.74-1.72,4.56,4.56,0,0,0-3.73,1.69,7,7,0,0,0-1.37,4.55,6.89,6.89,0,0,0,1.38,4.52,4.93,4.93,0,0,0,7.42,0,6.87,6.87,0,0,0,1.39-4.52A7.06,7.06,0,0,0,209.29,133.3Z" transform="translate(-6.66 -4.46)"/><path class="cls-4" d="M213.27,145.11V124.88h1.25v20.23h-1.25Z" transform="translate(-6.66 -4.46)"/><path class="cls-4" d="M226.07,145.13v-2a4.83,4.83,0,0,1-4.39,2.33,4.93,4.93,0,0,1-3.64-1.34,5.6,5.6,0,0,1-1.42-4.09v-9.46h1.24V140q0,4.06,3.82,4.06a3.88,3.88,0,0,0,3.34-1.55,6.83,6.83,0,0,0,1.05-4.06v-7.87h1.25v14.59h-1.25Z" transform="translate(-6.66 -4.46)"/><path class="cls-4" d="M232.26,132.57v12.53h-1.2l0-12.53h-2.43v-1.4H231v-4.38h1.25v4.38h2.47v1.4h-2.47Z" transform="translate(-6.66 -4.46)"/><path class="cls-4" d="M236.52,127.89a0.68,0.68,0,0,1-.59-0.6v-2.09a0.71,0.71,0,0,1,.59-0.6,1,1,0,0,1,.66.54v2.2A0.92,0.92,0,0,1,236.52,127.89Zm-0.59,17.21V130.31h1.25v14.79h-1.25Z" transform="translate(-6.66 -4.46)"/><path class="cls-4" d="M244.89,145.43a5.63,5.63,0,0,1-4.63-2.12,8.47,8.47,0,0,1-1.71-5.48,8.35,8.35,0,0,1,1.76-5.57,5.75,5.75,0,0,1,4.62-2.07,5.69,5.69,0,0,1,4.59,2.07,8.38,8.38,0,0,1,1.73,5.57,8.28,8.28,0,0,1-1.75,5.55A5.78,5.78,0,0,1,244.89,145.43Zm3.77-12.13a4.51,4.51,0,0,0-3.75-1.72,4.58,4.58,0,0,0-3.74,1.69,7,7,0,0,0-1.36,4.55,6.89,6.89,0,0,0,1.38,4.52,4.94,4.94,0,0,0,7.44,0,6.92,6.92,0,0,0,1.38-4.52A7.12,7.12,0,0,0,248.66,133.3Z" transform="translate(-6.66 -4.46)"/><path class="cls-4" d="M262.1,145.11v-9.52a4.18,4.18,0,0,0-1-3,3.76,3.76,0,0,0-2.75-1,3.93,3.93,0,0,0-3.25,1.48,6,6,0,0,0-1.19,3.87v8.17h-1.25V130.52h1.25v2a4.81,4.81,0,0,1,4.42-2.33,5.07,5.07,0,0,1,3.55,1.25,5,5,0,0,1,1.5,3.88v9.79H262.1Z" transform="translate(-6.66 -4.46)"/><path class="cls-4" d="M284.5,145.11v-2.62a5.35,5.35,0,0,1-5,3A5.26,5.26,0,0,1,275,143.2a10.44,10.44,0,0,1,0-11,5.35,5.35,0,0,1,4.56-2.24,5.25,5.25,0,0,1,4.88,2.84v-7.93h1.25v20.23H284.5Zm-1.25-12a4.43,4.43,0,0,0-3.76-1.76,4.11,4.11,0,0,0-3.56,1.88,7.7,7.7,0,0,0-1.22,4.47,7.53,7.53,0,0,0,1.2,4.45,4.11,4.11,0,0,0,3.58,1.85,4.34,4.34,0,0,0,3.65-1.85,7.1,7.1,0,0,0,1.35-4.45A7.53,7.53,0,0,0,283.25,133.14Z" transform="translate(-6.66 -4.46)"/><path class="cls-4" d="M288.47,138.36q0.25,5.67,4.93,5.67a4.55,4.55,0,0,0,4.68-3.55h1.28a6.34,6.34,0,0,1-2.43,3.94,6.26,6.26,0,0,1-3.58,1,5.42,5.42,0,0,1-4.61-2.12,8.8,8.8,0,0,1-1.49-5.46,8.59,8.59,0,0,1,1.7-5.55,5.52,5.52,0,0,1,4.53-2.12,5.7,5.7,0,0,1,4.51,1.93,7.54,7.54,0,0,1,1.7,5.17v1Zm5-6.77a4.48,4.48,0,0,0-3.42,1.44,6.36,6.36,0,0,0-1.56,3.94h9.81a6.07,6.07,0,0,0-1.43-3.94A4.4,4.4,0,0,0,293.47,131.59Z" transform="translate(-6.66 -4.46)"/><path class="cls-4" d="M306,145.49q-5.48,0-5.47-6h1.3a4.88,4.88,0,0,0,1,3.43A4.17,4.17,0,0,0,306,144a4.75,4.75,0,0,0,2.43-.57,2.46,2.46,0,0,0,1.18-2.21c0-1.2-.82-2-2.45-2.48-0.12,0-.93-0.19-2.46-0.47q-3.68-.69-3.68-3.88a3.93,3.93,0,0,1,1.47-3.25,4.73,4.73,0,0,1,3.07-1q5.27,0,5.27,5.31h-1.32a4,4,0,0,0-.91-2.94,4,4,0,0,0-2.91-.91,3.82,3.82,0,0,0-2.28.66,2.49,2.49,0,0,0-1.08,2.14c0,1.2.81,2,2.4,2.3l2.6,0.57q3.59,0.75,3.58,4a3.79,3.79,0,0,1-1.62,3.37A5.84,5.84,0,0,1,306,145.49Z" transform="translate(-6.66 -4.46)"/><path class="cls-4" d="M332.52,135.23q2.57,1.22,2.57,4.74v5.13h-1.25V140c0-2.64-1.53-4-4.56-4h-6.55v9h-1.25V124.88h8q5.84,0,5.84,5.31Q335.34,133.89,332.52,135.23Zm-3-9h-6.82v8.33h6.43a5.55,5.55,0,0,0,3.39-1,3.94,3.94,0,0,0,1.55-3.37C334.09,127.62,332.57,126.28,329.55,126.28Z" transform="translate(-6.66 -4.46)"/><path class="cls-4" d="M337.69,138.36q0.24,5.67,4.93,5.67a4.55,4.55,0,0,0,4.68-3.55h1.27a5.75,5.75,0,0,1-6,5,5.42,5.42,0,0,1-4.61-2.12,8.84,8.84,0,0,1-1.49-5.46,8.58,8.58,0,0,1,1.7-5.55,5.52,5.52,0,0,1,4.53-2.12,5.7,5.7,0,0,1,4.51,1.93,7.56,7.56,0,0,1,1.7,5.17v1Zm5-6.77a4.46,4.46,0,0,0-3.42,1.44,6.4,6.4,0,0,0-1.55,3.94h9.8a6,6,0,0,0-1.43-3.94A4.39,4.39,0,0,0,342.69,131.59Z" transform="translate(-6.66 -4.46)"/><path class="cls-4" d="M355.18,145.49q-5.46,0-5.47-6H351a4.91,4.91,0,0,0,1,3.43A4.18,4.18,0,0,0,355.2,144a4.71,4.71,0,0,0,2.43-.57,2.45,2.45,0,0,0,1.18-2.21c0-1.2-.82-2-2.45-2.48-0.11,0-.93-0.19-2.45-0.47q-3.69-.69-3.69-3.88a3.94,3.94,0,0,1,1.47-3.25,4.71,4.71,0,0,1,3.06-1q5.27,0,5.27,5.31h-1.32a4,4,0,0,0-.91-2.94,4,4,0,0,0-2.92-.91,3.84,3.84,0,0,0-2.28.66,2.49,2.49,0,0,0-1.08,2.14c0,1.2.8,2,2.41,2.3l2.59,0.57q3.58,0.75,3.58,4a3.79,3.79,0,0,1-1.62,3.37A5.85,5.85,0,0,1,355.18,145.49Z" transform="translate(-6.66 -4.46)"/><path class="cls-4" d="M367.09,145.49q-5.47,0-5.46-6h1.29a4.87,4.87,0,0,0,1,3.43,4.15,4.15,0,0,0,3.18,1.08,4.71,4.71,0,0,0,2.43-.57,2.44,2.44,0,0,0,1.18-2.21c0-1.2-.82-2-2.45-2.48q-0.17-.05-2.45-0.47-3.68-.69-3.68-3.88a3.91,3.91,0,0,1,1.47-3.25,4.72,4.72,0,0,1,3.07-1q5.27,0,5.27,5.31h-1.33a4,4,0,0,0-.91-2.94,4,4,0,0,0-2.91-.91,3.85,3.85,0,0,0-2.28.66,2.47,2.47,0,0,0-1.08,2.14c0,1.2.8,2,2.4,2.3l2.6,0.57q3.59,0.75,3.58,4a3.79,3.79,0,0,1-1.62,3.37A5.83,5.83,0,0,1,367.09,145.49Z" transform="translate(-6.66 -4.46)"/><path class="cls-4" d="M379.58,145.43a5.62,5.62,0,0,1-4.63-2.12,8.47,8.47,0,0,1-1.7-5.48,8.32,8.32,0,0,1,1.76-5.57,5.74,5.74,0,0,1,4.62-2.07,5.68,5.68,0,0,1,4.6,2.07,8.39,8.39,0,0,1,1.73,5.57,8.28,8.28,0,0,1-1.75,5.55A5.77,5.77,0,0,1,379.58,145.43Zm3.77-12.13a5,5,0,0,0-7.48,0,7,7,0,0,0-1.38,4.55,6.89,6.89,0,0,0,1.39,4.52,4.93,4.93,0,0,0,7.43,0,6.91,6.91,0,0,0,1.38-4.52A7.09,7.09,0,0,0,383.36,133.3Z" transform="translate(-6.66 -4.46)"/><path class="cls-4" d="M396.8,145.13v-2a4.83,4.83,0,0,1-4.39,2.33,5,5,0,0,1-3.65-1.34,5.59,5.59,0,0,1-1.43-4.09v-9.46h1.25V140c0,2.71,1.27,4.06,3.82,4.06a3.86,3.86,0,0,0,3.34-1.55,6.86,6.86,0,0,0,1.05-4.06v-7.87H398v14.59H396.8Z" transform="translate(-6.66 -4.46)"/><path class="cls-4" d="M402.54,134a11.28,11.28,0,0,0-1.08,5.28v5.85h-1.25V130.52h1.25V133a5.4,5.4,0,0,1,.93-1.22,5.88,5.88,0,0,1,4.29-1.58v1.4A4.34,4.34,0,0,0,402.54,134Z" transform="translate(-6.66 -4.46)"/><path class="cls-4" d="M417.2,144.33a6.21,6.21,0,0,1-8.12-.91,8,8,0,0,1-1.69-5.36,8.92,8.92,0,0,1,1.72-5.7,5.82,5.82,0,0,1,4.82-2.18,5.32,5.32,0,0,1,3.24,1,5.76,5.76,0,0,1,2.05,3.52l-1.14.69q-0.84-3.81-4.2-3.82a4.61,4.61,0,0,0-3.87,1.79,7.49,7.49,0,0,0-1.37,4.68,6.65,6.65,0,0,0,1.32,4.36,4.5,4.5,0,0,0,3.67,1.61,4.67,4.67,0,0,0,2.87-.9,4.9,4.9,0,0,0,1.66-3.28l1.18,0.63A6.12,6.12,0,0,1,417.2,144.33Z" transform="translate(-6.66 -4.46)"/><path class="cls-4" d="M421.32,138.36q0.24,5.67,4.93,5.67a4.56,4.56,0,0,0,4.68-3.55h1.28a6.34,6.34,0,0,1-2.43,3.94,6.22,6.22,0,0,1-3.58,1,5.41,5.41,0,0,1-4.61-2.12,8.84,8.84,0,0,1-1.5-5.46,8.57,8.57,0,0,1,1.7-5.55,5.52,5.52,0,0,1,4.52-2.12,5.73,5.73,0,0,1,4.52,1.93,7.55,7.55,0,0,1,1.69,5.17v1Zm5-6.77a4.46,4.46,0,0,0-3.42,1.44,6.36,6.36,0,0,0-1.55,3.94h9.81a6.1,6.1,0,0,0-1.43-3.94A4.41,4.41,0,0,0,426.32,131.59Z" transform="translate(-6.66 -4.46)"/><path class="cls-4" d="M438.81,145.49q-5.47,0-5.47-6h1.3a4.9,4.9,0,0,0,1,3.43,4.16,4.16,0,0,0,3.19,1.08,4.73,4.73,0,0,0,2.43-.57,2.45,2.45,0,0,0,1.18-2.21c0-1.2-.82-2-2.45-2.48-0.12,0-.93-0.19-2.46-0.47q-3.68-.69-3.68-3.88a3.91,3.91,0,0,1,1.48-3.25,4.7,4.7,0,0,1,3.06-1q5.27,0,5.27,5.31h-1.32a4,4,0,0,0-.91-2.94,4,4,0,0,0-2.91-.91,3.86,3.86,0,0,0-2.29.66,2.49,2.49,0,0,0-1.08,2.14c0,1.2.8,2,2.4,2.3l2.6,0.57q3.58,0.75,3.58,4a3.79,3.79,0,0,1-1.62,3.37A5.81,5.81,0,0,1,438.81,145.49Z" transform="translate(-6.66 -4.46)"/><path class="cls-4" d="M467.7,145.11v-9.84H455.59v9.84h-1.25V124.88h1.25v9H467.7v-9h1.25v20.23H467.7Z" transform="translate(-6.66 -4.46)"/><path class="cls-4" d="M480.51,145.13v-2a4.84,4.84,0,0,1-4.39,2.33,5,5,0,0,1-3.65-1.34A5.62,5.62,0,0,1,471,140v-9.46h1.25V140q0,4.06,3.83,4.06a3.88,3.88,0,0,0,3.34-1.55,6.84,6.84,0,0,0,1.05-4.06v-7.87h1.25v14.59h-1.25Z" transform="translate(-6.66 -4.46)"/><path class="cls-4" d="M500.56,145.11v-9.52q0-4-3.19-4a3.57,3.57,0,0,0-2.82,1.2A4.65,4.65,0,0,0,493.5,136v9.13h-1.25v-9.52q0-4-3.26-4a3.29,3.29,0,0,0-2.9,1.64,6.85,6.85,0,0,0-.94,3.7v8.17h-1.24V130.52h1.24v1.91a4.48,4.48,0,0,1,4.08-2.24,3.86,3.86,0,0,1,3.85,2.57,4.33,4.33,0,0,1,4.24-2.57q4.5,0,4.5,5.13v9.79h-1.26Z" transform="translate(-6.66 -4.46)"/><path class="cls-4" d="M514.25,145.13v-2.62a5.36,5.36,0,0,1-5,2.92,5.29,5.29,0,0,1-4.48-2.21,10.19,10.19,0,0,1,0-10.83,5.38,5.38,0,0,1,4.56-2.21,5.23,5.23,0,0,1,4.88,2.84v-2.78h1.25v14.89h-1.25ZM513,133.32a4.44,4.44,0,0,0-3.75-1.73,4.18,4.18,0,0,0-3.58,1.85,7.56,7.56,0,0,0-1.21,4.42,7.32,7.32,0,0,0,1.21,4.38,4.14,4.14,0,0,0,3.58,1.79,4.36,4.36,0,0,0,3.64-1.76,7,7,0,0,0,1.37-4.41A7.39,7.39,0,0,0,513,133.32Z" transform="translate(-6.66 -4.46)"/><path class="cls-4" d="M518.37,127.89a0.69,0.69,0,0,1-.59-0.6v-2.09a0.71,0.71,0,0,1,.59-0.6,1,1,0,0,1,.66.54v2.2A0.89,0.89,0,0,1,518.37,127.89Zm-0.59,17.21V130.31H519v14.79h-1.25Z" transform="translate(-6.66 -4.46)"/><path class="cls-4" d="M530.58,145.11v-9.52a4.17,4.17,0,0,0-1-3,3.77,3.77,0,0,0-2.75-1,4,4,0,0,0-3.25,1.48,6,6,0,0,0-1.19,3.87v8.17h-1.25V130.52h1.25v2a4.82,4.82,0,0,1,4.42-2.33,5.07,5.07,0,0,1,3.56,1.25,5,5,0,0,1,1.5,3.88v9.79h-1.25Z" transform="translate(-6.66 -4.46)"/><path class="cls-4" d="M534.43,138.36q0.24,5.67,4.93,5.67a4.56,4.56,0,0,0,4.69-3.55h1.27a6.34,6.34,0,0,1-2.43,3.94,6.24,6.24,0,0,1-3.58,1,5.43,5.43,0,0,1-4.61-2.12,8.84,8.84,0,0,1-1.5-5.46,8.55,8.55,0,0,1,1.71-5.55,5.52,5.52,0,0,1,4.52-2.12,5.72,5.72,0,0,1,4.51,1.93,7.57,7.57,0,0,1,1.69,5.17v1Zm5-6.77A4.47,4.47,0,0,0,536,133a6.36,6.36,0,0,0-1.56,3.94h9.81a6.13,6.13,0,0,0-1.44-3.94A4.41,4.41,0,0,0,539.44,131.59Z" transform="translate(-6.66 -4.46)"/><path class="cls-4" d="M551.92,145.49q-5.47,0-5.47-6h1.3a4.91,4.91,0,0,0,1,3.43,4.18,4.18,0,0,0,3.19,1.08,4.74,4.74,0,0,0,2.43-.57,2.46,2.46,0,0,0,1.18-2.21c0-1.2-.82-2-2.45-2.48q-0.18-.05-2.46-0.47-3.68-.69-3.68-3.88a3.92,3.92,0,0,1,1.47-3.25,4.72,4.72,0,0,1,3.07-1q5.27,0,5.27,5.31h-1.32a3.29,3.29,0,0,0-3.83-3.84,3.85,3.85,0,0,0-2.28.66,2.49,2.49,0,0,0-1.08,2.14c0,1.2.8,2,2.41,2.3l2.59,0.57q3.59,0.75,3.59,4a3.79,3.79,0,0,1-1.62,3.37A5.85,5.85,0,0,1,551.92,145.49Z" transform="translate(-6.66 -4.46)"/><path class="cls-5" d="M16.09,14.78V44.12H71.91V54H16.09v41H6.66V4.46H74.52V14.78H16.09Z" transform="translate(-6.66 -4.46)"/><path class="cls-5" d="M112.54,95.87c-20.81,0-34.37-.28-34.37-31.92,0-29.34,10.08-32.6,30.79-32.6,21.78,0,35.23-.41,35.23,32.6C144.2,93.84,133.14,95.87,112.54,95.87Zm19.94-50c-4.12-6.52-16.26-5.7-22.11-5.7-16.37,0-23.74.27-23.74,24,0,6,.33,13.86,4.12,18.21,4.34,5.16,15.51,4.62,21,4.62,5.31,0,10.95.27,16-1.76,7.8-3.13,7.91-14,7.91-22.69C135.74,56.88,135.41,50.5,132.48,45.88Z" transform="translate(-6.66 -4.46)"/><path class="cls-5" d="M208.8,88.95c-5.53,7.06-15.18,6.79-22.55,6.79s-17.67.13-24.61-2.72C151.56,88.81,150,75.09,150,63.54c0-29.61,10.84-32.19,31.43-32.19,7.26,0,21.36-.41,26.89,7.06,3.36,4.62,4.12,10.19,4.33,16.17h-8.34c-0.22-10.46-4.23-12.77-11.93-13.85a75.16,75.16,0,0,0-11.06-.54c-17,0-22.87,1.08-22.87,24.86,0,6,.43,12.77,4,17.26,4.12,5.16,16.8,4.75,22.11,4.75a51.88,51.88,0,0,0,10.29-.68c7.48-1.36,9.65-4.89,10-14.13h8C212.81,78.35,212.38,84.46,208.8,88.95Z" transform="translate(-6.66 -4.46)"/><path class="cls-5" d="M273.07,95.06V85.55h-0.54a17,17,0,0,1-3.36,5.16c-5.09,5.3-15.18,5.16-21.46,5.16-6.83,0-17.13-.13-22.65-6-4.88-5.16-4.88-15.62-4.88-23V32.16h7.91V64c0,1.9,0,3.94.11,5.84,0.11,4.75.54,9.51,3.58,12.9C235.68,87,243.7,87,248.58,87c8,0,21.68-.41,23.85-13a70.3,70.3,0,0,0,.65-10.73V32.16H281v62.9h-7.91Z" transform="translate(-6.66 -4.46)"/><path class="cls-5" d="M349.28,89.08c-3.79,6-11.82,6.38-17.34,6.66C328.25,96,324.67,96,321,96c-7.27,0-15.94.13-23.09-2-7.48-2.31-9.43-8.42-9.43-17.52,0-1.09,0-2.17.11-3.26H297c0,3.8-.43,8,2.06,10.87,3.47,3.94,17.78,3.12,22,3.12,4.55,0,13.87.41,18.21-1.63,3.14-1.36,4.22-4.21,4.22-8.29,0-9.51-6.39-9.64-12.46-9.64-7.92,0-15.83-.28-23.74-0.41-10.62-.13-17.88-2.44-17.88-17.52,0-4.08.54-7.75,2.49-11,3.68-6.25,11.92-6.79,17.56-7.2,3.69-.27,7.26-0.27,10.95-0.27,6.29,0,15.93.13,21.9,2.85a13.63,13.63,0,0,1,5.63,5c2.38,3.53,2.17,8,2.17,12.36H341.8c-0.43-2.72.11-5.3-1.62-7.61C337,39.9,324.46,40,320.12,40c-4.88,0-17.88-.68-21,4.21a10.6,10.6,0,0,0-1.3,5.84,9.37,9.37,0,0,0,1.09,5.16c2.17,3.4,9.21,3.12,12.25,3.12,4.45,0,8.89,0,13.33.13,6.18,0.14,13-.4,19,1.9,6.72,2.58,8.56,8.7,8.56,17C352,81.88,351.55,85.55,349.28,89.08Z" transform="translate(-6.66 -4.46)"/><path class="cls-4" d="M446.84,52.68c-2.29,5.16-6.35,6.38-10.61,7.34,10.51,0.95,12.18,7.61,12.18,20.24V95.06H427.59c0-5.44.21-11.14-.62-16.44-0.95-6-4.17-6.52-8.33-6.52H383.88v23H362.77V4.46h51.09c3.75,0,7.6.13,11.35,0.13,7.91,0.14,16.75-.95,21.44,9.24,2.71,5.84,2.5,14,2.5,20.51C449.13,40.31,449.24,47.38,446.84,52.68ZM419.27,27.14H383.88V49.41h29.77c1.56,0,3.12-.13,4.68-0.13C425.93,49,428,48.73,428,37.87,428,28.63,426.24,27.14,419.27,27.14Z" transform="translate(-6.66 -4.46)"/><path class="cls-4" d="M532.9,95.06V62.18H485.13V95.06H463V4.46h22.16V36.92H532.9V4.46h22.16V95.06H532.9Z" transform="translate(-6.66 -4.46)"/></svg>