<svg id="Calque_1" data-name="Calque 1" xmlns="http://www.w3.org/2000/svg" viewBox="0 0 776.36 149.74"><defs><style>.cls-1,.cls-3{fill:none;stroke:#004874;}.cls-1{stroke-width:4.6px;}.cls-2{fill:#004874;}.cls-3{stroke-miterlimit:10;}</style></defs><title>STUDYRAMA.COM</title><path class="cls-1" d="M154.56,122.35c-6.75,11.06-19.63,18.54-34.42,18.54H47.86c-21.77,0-39.42-16.21-39.42-36.2V44.38c0-20,17.65-36.19,39.42-36.19h72.27a41.61,41.61,0,0,1,23.37,7" transform="translate(-6.14 -5.37)"/><path class="cls-2" d="M35.74,97.59H79.6c5.59,0,10.75-1.29,10.75-7.31C90.35,84,86.26,83,80,83H64.76c-16.55,0-31-7.52-31-27.95,0-21.5,16.77-28.59,33.32-28.59h54.82V48.58H81.32c-6.67,0-10.54,1.72-10.54,7.09,0,4.94,3.66,6.88,9.89,6.88H95.29c17.63,0,32.25,7.31,32.25,28.16,0,22.36-15.05,29-31.82,29h-60V97.59Z" transform="translate(-6.14 -5.37)"/><path class="cls-2" d="M138.19,61.21V41.31h10.08V16.85H174V41.31h17.69v19.9H174V85.48c0,10.77,2.19,13.7,8.77,13.7h7.31v21.35H173.71c-17.1,0-25.44-8.22-25.44-33.59V61.21H138.19Z" transform="translate(-6.14 -5.37)"/><path class="cls-2" d="M203.63,83.92V41.05h25.73V81.58c0,11.66,1.61,16.14,9.65,16.14s9.79-4.48,9.79-16.14V41.05h25.73V83.92c0,27.27-11.26,36.77-35.52,36.77S203.63,111.18,203.63,83.92Z" transform="translate(-6.14 -5.37)"/><path class="cls-2" d="M401.83,120.44c-20.18,0-29.1-12.3-29.1-37.66V41.2h25.74V80.54c0,12.49,1.75,17.15,9.35,17.15h9.79V41.2h25.74v76.44c0,24.24-10.38,37.48-30,37.48H378.72l9.89-21.71,18.77-.1c7.3,0,9.8-4.1,10.23-12.87H401.83Z" transform="translate(-6.14 -5.37)"/><path class="cls-2" d="M457.19,77.57c0-23.67,9.21-36.52,28.81-36.52h16V64.54H491.85c-6.88,0-8.93,4.4-8.93,16.14v40H457.19V77.57Z" transform="translate(-6.14 -5.37)"/><path class="cls-2" d="M333.33,5.37V41.56H317.25c-19.59,0-30.84,13.45-30.84,39.1s12.42,39.82,32.16,39.82h40.49V5.37H333.33Zm0,95.1h-9.5c-7.89,0-10.82-6.37-10.82-19.64,0-12.54,2.92-18.18,10.82-18.18h9.5v37.82Z" transform="translate(-6.14 -5.37)"/><path class="cls-2" d="M594.84,78.12c0-25,9.06-37.25,29.09-37.06H671c19.88,0,28.94,12.11,28.94,37.06v42.57H674.22V80.32c0-12.29-1.75-16.88-9.21-16.88h-6.43v57.25H636.36V63.44h-6.43c-7.6,0-9.36,4.59-9.36,16.88v40.37H594.84V78.12Z" transform="translate(-6.14 -5.37)"/><path class="cls-2" d="M555.7,88.25V102H541.22c-4.09,0-6.43-1.65-6.43-6.8s2.19-7,6.43-7H555.7Zm0-15.46H531.28c-12.71,0-21.63,6.25-21.63,24.09,0,17.47,8.62,23.91,21.63,23.91h49.26V77c0-23.54-8.33-36-25.43-36H516.23V61.21h31.14C553.36,61.21,555.41,65.07,555.7,72.79Z" transform="translate(-6.14 -5.37)"/><path class="cls-2" d="M757.65,88.25V102H743.18c-4.09,0-6.43-1.65-6.43-6.8s2.19-7,6.43-7h14.47Zm0-15.46H733.23c-12.71,0-21.63,6.25-21.63,24.09,0,17.47,8.62,23.91,21.63,23.91H782.5V77c0-23.54-8.33-36-25.43-36H718.18V61.21h31.13C755.31,61.21,757.36,65.07,757.65,72.79Z" transform="translate(-6.14 -5.37)"/><path class="cls-1" d="M154.56,122.35c-6.75,11.06-19.63,18.54-34.42,18.54H47.86c-21.77,0-39.42-16.21-39.42-36.2V44.38c0-20,17.65-36.19,39.42-36.19h72.27a41.61,41.61,0,0,1,23.37,7" transform="translate(-6.14 -5.37)"/><path class="cls-3" d="M154.56,122.35c-6.75,11.06-19.63,18.54-34.42,18.54H47.86c-21.77,0-39.42-16.21-39.42-36.2V44.38c0-20,17.65-36.19,39.42-36.19h72.27a41.61,41.61,0,0,1,23.37,7" transform="translate(-6.14 -5.37)"/></svg>